<?xml version="1.0" standalone="no"?>
<!DOCTYPE svg PUBLIC "-//W3C//DTD SVG 20010904//EN"
 "http://www.w3.org/TR/2001/REC-SVG-20010904/DTD/svg10.dtd">
<svg version="1.0" xmlns="http://www.w3.org/2000/svg"
 width="500.000000pt" height="500.000000pt" viewBox="0 0 500.000000 500.000000"
 preserveAspectRatio="xMidYMid meet">
<metadata>
Created by potrace 1.14, written by Peter Selinger 2001-2017
</metadata>
<g transform="translate(0.000000,500.000000) scale(0.100000,-0.100000)"
fill="#000000" stroke="none">
<path d="M2075 4902 c-22 -9 -44 -20 -50 -24 -27 -22 -65 -57 -65 -61 0 -2
-15 -20 -32 -39 -18 -19 -45 -57 -59 -83 -38 -71 -44 -73 -140 -41 -117 40
-184 56 -231 56 -60 0 -178 -64 -178 -97 0 -7 -4 -13 -10 -13 -12 0 -31 -43
-72 -165 -46 -137 -27 -125 -191 -126 -110 0 -152 -4 -184 -17 -45 -18 -113
-73 -113 -91 0 -6 -4 -11 -9 -11 -22 0 -43 -116 -44 -244 l-2 -131 -110 -37
c-60 -20 -126 -45 -145 -55 -39 -19 -100 -76 -100 -93 0 -5 -4 -10 -9 -10 -5
0 -14 -24 -21 -52 -12 -59 -5 -149 16 -190 8 -15 14 -35 14 -45 0 -10 7 -30
14 -45 26 -50 27 -86 2 -113 -13 -14 -28 -25 -35 -25 -6 0 -11 -4 -11 -9 0 -5
-11 -12 -24 -15 -30 -7 -120 -89 -150 -136 -40 -63 -51 -122 -36 -196 11 -51
22 -72 58 -109 6 -8 12 -18 12 -24 0 -6 4 -11 9 -11 5 0 12 -9 16 -20 3 -11
22 -42 41 -70 l34 -50 -35 -54 c-19 -30 -35 -59 -35 -65 0 -5 -3 -11 -7 -13
-15 -6 -81 -114 -93 -150 -22 -71 7 -178 63 -238 43 -45 96 -90 107 -90 5 0
10 -4 10 -8 0 -5 20 -17 44 -27 30 -12 47 -26 50 -41 4 -14 -9 -67 -31 -131
-48 -142 -52 -235 -10 -300 42 -66 60 -79 162 -123 11 -5 29 -11 40 -14 47
-12 139 -47 151 -57 10 -8 13 -43 13 -133 -1 -124 10 -188 39 -235 24 -39 64
-81 78 -81 6 0 17 -6 23 -14 16 -19 91 -29 221 -31 58 -1 112 -3 120 -3 15 -2
34 -38 50 -97 56 -205 142 -295 281 -295 56 0 93 9 199 45 83 29 103 34 112
29 4 -3 32 -42 62 -87 60 -91 101 -133 161 -168 34 -20 53 -24 125 -23 l85 0
64 47 c35 26 69 47 77 47 8 0 14 5 14 10 0 6 7 10 15 10 8 0 15 4 15 9 0 5 15
18 34 29 l34 20 57 -39 c32 -21 62 -39 66 -39 5 0 18 -8 28 -18 33 -29 50 -42
56 -42 4 0 13 -6 21 -14 32 -33 178 -31 238 3 45 25 136 119 148 152 5 16 14
29 19 29 5 0 9 5 9 11 0 6 7 17 15 25 8 8 18 22 23 30 7 13 26 9 131 -26 185
-61 274 -54 358 27 18 17 33 35 33 40 0 5 5 14 12 21 12 12 24 41 64 164 14
42 33 83 41 90 11 9 51 13 127 14 134 1 211 11 227 30 6 8 16 14 22 14 14 0
69 62 90 102 15 29 20 64 22 179 2 79 4 149 4 155 1 14 45 33 170 75 86 28
111 42 150 79 63 60 85 113 78 182 -6 53 -29 145 -46 183 -19 42 -33 104 -28
118 3 8 33 31 67 52 72 44 147 113 185 172 36 56 39 159 5 227 -12 25 -26 46
-31 46 -5 0 -9 7 -9 15 0 8 -4 15 -8 15 -4 0 -23 26 -42 58 -19 31 -40 63 -47
70 -15 15 -17 52 -4 52 5 0 17 16 26 37 10 20 44 72 76 115 45 61 59 88 60
116 3 87 -4 135 -24 170 -27 47 -108 124 -167 158 -85 50 -104 78 -81 122 20
36 71 219 71 252 0 77 -53 169 -122 213 -27 17 -87 41 -143 57 -84 24 -125 44
-130 61 -3 10 -8 80 -9 157 -4 154 -15 189 -78 249 -63 61 -106 73 -264 73
-101 0 -144 4 -151 13 -6 6 -27 64 -49 127 -58 174 -95 219 -210 253 -52 15
-42 17 -259 -42 -17 -4 -40 -13 -52 -19 -39 -21 -58 -14 -94 36 -19 26 -34 50
-34 54 0 4 -20 31 -45 61 -111 135 -272 165 -382 72 -37 -31 -86 -65 -94 -65
-4 0 -22 -11 -40 -25 -32 -25 -94 -35 -94 -15 0 6 -20 20 -45 32 -25 12 -45
26 -45 30 0 4 -6 8 -14 8 -8 0 -16 3 -18 8 -3 7 -61 46 -105 70 -31 17 -120
13 -168 -6z m157 -29 c24 -9 59 -28 78 -42 19 -15 48 -33 64 -41 17 -8 41 -25
54 -37 14 -13 29 -23 33 -23 24 0 4 -29 -36 -54 -25 -16 -45 -33 -45 -37 0 -5
-6 -9 -12 -9 -7 0 -42 -25 -78 -56 -36 -30 -76 -58 -89 -61 -13 -3 -47 1 -75
10 -28 10 -98 32 -156 51 -73 24 -105 39 -104 49 2 24 76 129 124 175 50 49
130 91 172 92 15 0 47 -8 70 -17z m696 -5 c40 -14 45 -17 95 -63 31 -28 102
-124 100 -135 0 -3 8 -16 19 -30 l19 -25 -23 -9 c-13 -5 -37 -15 -55 -22 -17
-8 -39 -14 -50 -14 -10 0 -31 -7 -47 -15 -15 -8 -36 -15 -45 -15 -9 0 -29 -7
-45 -15 -55 -29 -84 -20 -183 58 -50 40 -110 85 -133 100 l-41 29 32 27 c17
15 47 36 68 46 20 11 53 32 74 48 68 52 135 63 215 35z m-343 -230 c39 -26 94
-67 123 -92 30 -25 58 -46 63 -46 5 0 9 -4 9 -10 0 -5 -10 -10 -23 -10 -13 0
-32 -7 -43 -15 -10 -8 -28 -15 -39 -15 -11 0 -32 -6 -46 -14 -22 -11 -43 -17
-119 -32 -15 -3 -61 9 -110 29 -14 5 -38 13 -55 18 -16 4 -47 14 -68 22 l-37
13 27 25 c53 47 152 119 162 119 6 0 11 4 11 9 0 9 61 51 70 48 3 -1 37 -23
75 -49z m-978 22 c29 -6 55 -16 59 -21 3 -5 13 -9 22 -9 25 0 102 -31 102 -42
0 -9 -35 -62 -58 -86 -6 -7 -27 -35 -44 -60 -18 -26 -41 -57 -53 -68 -11 -12
-28 -31 -37 -43 -17 -20 -26 -21 -193 -21 -185 0 -193 2 -160 46 8 10 15 25
15 32 0 8 7 30 16 50 9 21 22 52 30 70 8 18 14 37 14 43 0 10 2 13 42 61 52
63 122 76 245 48z m1976 0 c20 -6 37 -15 37 -20 0 -6 5 -10 10 -10 27 0 88
-102 106 -175 4 -17 12 -41 19 -55 7 -14 16 -40 20 -57 l7 -33 -173 0 -173 0
-28 33 c-16 17 -50 61 -75 97 -26 36 -51 67 -55 68 -5 2 -8 10 -8 18 0 8 -4
14 -8 14 -4 0 -15 13 -25 29 l-17 28 68 23 c169 58 215 64 295 40z m-384 -99
c10 -10 27 -32 37 -50 10 -17 22 -31 26 -31 4 0 8 -7 8 -15 0 -8 4 -15 8 -15
4 0 15 -12 25 -27 9 -16 33 -46 53 -68 l37 -40 -142 -3 -142 -3 -52 34 c-29
19 -73 47 -99 62 -27 15 -48 31 -48 36 0 5 -5 9 -11 9 -6 0 -17 6 -24 14 -12
11 10 21 138 64 84 28 155 51 160 51 4 1 15 -7 26 -18z m-1277 -5 c18 -8 67
-25 108 -37 41 -12 81 -27 89 -33 8 -6 17 -10 20 -8 3 2 7 0 8 -5 2 -7 -30
-30 -185 -129 l-54 -34 -134 0 c-109 0 -134 3 -134 14 0 8 4 16 8 18 10 4 142
173 142 182 0 3 8 15 18 25 21 23 69 26 114 7z m368 -122 c14 -7 53 -21 87
-31 35 -10 63 -20 63 -23 0 -3 -14 -7 -32 -8 -17 -2 -37 -7 -42 -12 -29 -23
-174 -50 -273 -50 -104 0 -123 8 -79 32 67 37 93 53 135 83 48 35 86 38 141 9z
m560 6 c8 -11 98 -70 107 -70 4 0 24 -14 43 -31 l35 -30 -130 4 c-122 4 -158
11 -265 48 -19 7 -42 14 -50 16 -13 4 109 52 185 72 30 9 66 4 75 -9z m-243
-99 c84 -23 57 -31 -104 -31 -135 0 -155 2 -138 14 11 7 31 16 45 19 14 3 41
10 60 15 35 8 55 6 137 -17z m-1432 -84 c-17 -63 -40 -135 -52 -164 -7 -17
-13 -38 -13 -46 0 -49 -56 -126 -92 -127 -10 0 -32 -6 -50 -14 -18 -8 -67 -25
-108 -37 -41 -12 -83 -27 -92 -33 -9 -6 -20 -7 -25 -3 -4 4 -8 56 -8 115 -1
109 9 195 25 216 44 54 61 69 105 90 44 21 65 24 183 25 l133 1 -6 -23z m375
9 c0 -8 -3 -16 -7 -18 -12 -5 -53 -66 -53 -78 0 -5 -4 -10 -9 -10 -5 0 -13
-13 -19 -28 -12 -36 -58 -85 -97 -104 -65 -33 -245 -82 -245 -67 0 4 4 18 9
31 6 13 26 74 46 136 52 168 29 152 215 152 131 0 160 -3 160 -14z m310 10 c0
-8 -50 -56 -60 -56 -5 0 -10 -3 -10 -7 0 -12 -184 -113 -205 -113 -7 0 -26 -7
-41 -15 -28 -14 -84 -21 -84 -9 0 5 55 82 80 111 5 7 10 14 10 17 0 2 14 20
32 40 l32 36 123 0 c68 0 123 -2 123 -4z m216 -11 c-11 -8 -26 -15 -33 -15
-15 0 -125 -35 -158 -50 -11 -5 -31 -12 -45 -16 -25 -6 -25 -6 5 26 46 49 90
66 175 68 69 2 73 1 56 -13z m721 0 c75 -18 162 -41 208 -57 17 -5 44 -14 60
-18 17 -5 48 -16 70 -25 22 -9 49 -19 59 -22 41 -13 208 -103 278 -149 210
-138 397 -323 515 -509 18 -27 36 -54 41 -60 4 -5 18 -30 30 -55 13 -25 27
-52 32 -60 5 -8 23 -46 40 -85 17 -38 37 -83 45 -100 28 -62 65 -201 91 -340
35 -185 19 -520 -32 -695 -7 -25 -16 -64 -19 -87 -4 -24 -11 -45 -16 -49 -5
-3 -9 -14 -9 -26 0 -11 -6 -32 -14 -46 -8 -15 -38 -75 -67 -135 -29 -59 -57
-107 -61 -107 -4 0 -8 -5 -8 -11 0 -5 -20 -41 -45 -79 -25 -38 -45 -72 -45
-75 0 -4 -6 -12 -12 -20 -24 -24 -48 -55 -48 -61 0 -20 -164 -181 -258 -253
-46 -34 -86 -69 -89 -77 -3 -8 -10 -14 -17 -14 -10 0 -28 -11 -105 -62 -24
-16 -171 -90 -216 -108 -278 -116 -535 -158 -835 -137 -159 11 -376 60 -495
112 -72 32 -290 139 -295 146 -3 4 -27 19 -54 34 -115 64 -314 248 -421 390
-37 49 -70 96 -73 104 -3 8 -13 22 -21 31 -66 71 -117 175 -170 350 -18 58
-37 113 -42 124 -52 93 -84 472 -58 671 22 162 66 336 114 450 68 164 124 272
157 306 9 10 24 32 33 48 8 17 19 31 23 31 4 0 16 15 26 33 30 52 116 158 164
205 24 23 80 67 123 98 44 30 79 60 79 65 0 5 5 9 12 9 6 0 36 19 66 42 59 46
74 55 142 88 25 11 58 28 73 35 16 8 36 15 46 15 9 0 21 4 27 8 10 9 77 35
199 77 74 25 102 32 225 54 25 4 143 9 262 10 167 1 232 -2 285 -14z m320 -11
c18 -10 33 -22 33 -26 0 -5 7 -8 15 -8 8 0 15 -6 15 -14 0 -8 6 -16 13 -19 6
-2 -1 -2 -18 1 -16 3 -43 10 -60 17 -45 19 -96 36 -134 45 -18 5 -39 14 -45
20 -19 21 143 6 181 -16z m300 11 c11 -8 34 -35 49 -60 16 -25 32 -45 37 -45
4 0 7 -5 7 -11 0 -7 6 -17 14 -23 8 -6 17 -21 21 -33 5 -18 2 -23 -12 -23 -24
0 -114 34 -188 71 -83 41 -99 51 -170 113 l-30 25 125 1 c95 0 131 -4 147 -15z
m369 7 c11 -7 56 -122 74 -187 4 -16 12 -41 17 -55 6 -14 13 -37 16 -51 l7
-26 -53 12 c-46 12 -81 23 -182 59 -39 14 -93 71 -117 124 -10 23 -23 42 -28
42 -6 0 -10 7 -10 15 0 8 -3 15 -7 15 -5 0 -16 14 -25 30 l-17 30 157 0 c86 0
162 -4 168 -8z m359 -12 c44 -15 91 -59 118 -111 15 -29 18 -60 18 -173 0 -76
-3 -141 -5 -144 -3 -3 -23 2 -43 10 -71 28 -111 41 -218 71 -52 14 -95 59 -95
98 0 10 -6 33 -14 51 -20 49 -37 98 -47 143 -6 21 -15 45 -20 51 -14 18 7 20
146 19 72 -1 136 -6 160 -15z m-593 -238 c7 -7 17 -12 23 -12 16 0 105 -91
105 -107 0 -18 -19 -17 -26 2 -4 8 -12 15 -20 15 -8 0 -14 4 -14 9 0 5 -10 13
-22 17 -13 4 -39 21 -59 38 -20 17 -49 41 -64 52 l-28 22 46 -12 c26 -7 52
-17 59 -24z m-2053 -22 c-35 -27 -69 -50 -75 -50 -7 0 -14 -7 -18 -15 -3 -8
-12 -15 -21 -15 -8 0 -15 -4 -15 -8 0 -5 -11 -14 -25 -20 l-25 -12 17 28 c22
35 94 101 111 102 6 0 12 4 12 9 0 8 57 28 89 30 7 1 -15 -21 -50 -49z m-162
-38 c-10 -10 -17 -23 -17 -29 0 -6 -7 -13 -15 -17 -8 -3 -15 -11 -15 -19 0
-21 -123 -140 -191 -186 -34 -23 -63 -40 -65 -38 -6 6 50 196 66 227 8 15 33
24 180 64 73 19 76 19 57 -2z m2458 -9 c89 -10 147 -68 158 -154 3 -24 12 -64
21 -89 8 -24 14 -45 12 -47 -1 -2 -11 5 -22 15 -10 9 -39 30 -62 46 -56 38
-140 122 -178 178 -16 23 -35 49 -41 56 -19 20 -17 21 25 10 20 -5 60 -12 87
-15z m-2745 -83 c0 -48 -63 -234 -88 -259 -22 -22 -99 -71 -111 -71 -5 0 -11
-3 -13 -7 -3 -8 -93 -73 -101 -73 -7 0 -1 304 8 323 4 9 12 17 18 17 9 0 46
12 217 73 60 21 70 21 70 -3z m2982 6 c18 -8 67 -24 108 -37 41 -12 78 -27 81
-32 3 -5 9 -8 13 -8 48 7 46 13 46 -170 l0 -171 -34 26 c-19 14 -39 26 -45 26
-6 0 -11 4 -11 8 0 5 -17 16 -37 26 -78 37 -107 70 -132 148 -13 40 -30 84
-36 98 -7 14 -15 42 -19 63 -6 33 -5 37 13 37 11 0 35 -6 53 -14z m-3334 -271
c-1 -169 -2 -175 -25 -195 -13 -11 -28 -20 -33 -20 -6 0 -10 -4 -10 -9 0 -4
-48 -43 -106 -86 -109 -80 -123 -84 -124 -29 0 11 -4 24 -8 30 -5 5 -19 39
-30 75 -40 119 -24 236 38 286 29 24 163 83 188 83 10 0 23 5 29 11 6 6 26 15
45 19 18 4 34 8 35 9 1 1 2 -78 1 -174z m3701 149 c14 -8 31 -14 38 -14 12 0
46 -14 123 -49 68 -31 110 -88 126 -170 5 -22 -11 -89 -37 -166 -6 -16 -14
-44 -18 -60 -4 -17 -13 -41 -20 -53 l-12 -23 -42 32 c-23 17 -63 45 -89 62
-27 16 -48 34 -48 38 0 5 -6 9 -12 9 -7 1 -31 18 -52 40 l-40 39 -1 163 c-1
90 0 166 2 171 5 9 47 -1 82 -19z m-3292 -107 c-14 -18 -40 -55 -58 -83 -18
-27 -38 -53 -45 -59 -6 -5 -18 -21 -28 -35 l-16 -24 0 25 c0 22 23 66 80 157
8 12 20 22 26 22 6 0 17 7 24 15 7 8 19 15 27 15 12 0 9 -8 -10 -33z m2862
-22 c52 -55 75 -97 85 -151 l6 -29 -25 30 c-13 17 -27 38 -30 48 -4 9 -12 17
-20 17 -7 0 -20 18 -29 40 -9 22 -20 40 -26 40 -5 0 -10 7 -10 15 0 8 -4 15
-9 15 -5 0 -11 7 -15 15 -12 32 23 13 73 -40z m-3035 -127 c-8 -29 -19 -64
-25 -78 -6 -14 -18 -41 -27 -60 -25 -55 -74 -132 -104 -164 -15 -17 -28 -33
-28 -38 0 -4 -4 -8 -9 -8 -15 0 -7 246 9 265 8 9 43 38 79 63 37 26 68 49 71
53 5 6 29 17 41 18 3 1 0 -23 -7 -51z m3192 26 c6 -8 16 -14 23 -14 6 0 11 -3
11 -7 0 -5 27 -26 60 -48 l60 -40 0 -134 c0 -76 -4 -131 -9 -126 -69 78 -155
231 -180 324 -7 23 -15 50 -18 58 -5 12 -1 14 18 8 13 -4 29 -13 35 -21z
m-3428 -292 c-3 -135 -5 -149 -25 -171 -11 -12 -32 -43 -45 -68 -12 -25 -31
-55 -40 -67 -10 -11 -26 -32 -36 -45 l-19 -24 -23 74 c-12 41 -34 106 -47 144
-13 39 -27 77 -30 86 -3 12 19 35 76 78 44 33 85 61 90 61 6 0 11 4 11 9 0 8
76 68 88 71 1 0 1 -66 0 -148z m3665 117 c18 -16 44 -37 60 -45 15 -8 27 -19
27 -24 0 -6 5 -10 11 -10 19 0 130 -92 126 -104 -2 -6 -21 -63 -42 -126 -54
-164 -57 -170 -66 -170 -4 0 -23 21 -40 48 -18 26 -35 49 -38 52 -3 3 -13 19
-21 35 -8 17 -18 32 -21 35 -3 3 -14 22 -23 42 -14 29 -18 64 -18 160 0 68 1
126 1 131 2 13 11 8 44 -24z m-3531 -171 c-6 -8 -21 -45 -33 -83 -57 -181 -56
-178 -63 -153 -9 34 -7 78 7 128 12 45 19 56 66 106 23 25 44 26 23 2z m3388
-14 c0 -8 4 -14 9 -14 24 0 52 -70 55 -139 2 -39 0 -74 -4 -76 -7 -4 -28 51
-34 85 -1 8 -7 25 -14 37 -7 12 -12 30 -12 40 0 10 -7 27 -15 37 -20 26 -20
57 0 50 8 -4 15 -12 15 -20z m484 -57 c71 -48 149 -128 172 -175 19 -40 16
-163 -4 -170 -7 -2 -12 -8 -12 -14 0 -6 -13 -27 -29 -47 -15 -20 -36 -53 -46
-73 -9 -21 -21 -38 -26 -38 -5 0 -9 -5 -9 -10 0 -6 -6 -17 -12 -24 -11 -11
-17 -9 -35 10 -12 13 -30 37 -39 54 -10 16 -22 30 -26 30 -4 0 -8 5 -8 11 0 5
-12 24 -27 40 -47 50 -57 64 -76 98 -17 30 -18 34 -3 66 9 18 16 42 16 52 0
11 3 23 8 27 4 4 7 11 8 14 2 21 18 71 30 99 8 17 14 36 14 42 0 22 24 60 34
54 6 -4 38 -24 70 -46z m-4291 8 c9 -20 17 -42 17 -50 0 -8 6 -29 14 -47 19
-45 35 -94 50 -151 13 -47 13 -48 -24 -101 -21 -30 -47 -63 -57 -73 -11 -11
-41 -50 -67 -86 -26 -37 -51 -67 -54 -66 -8 0 -78 107 -88 134 -4 10 -16 27
-27 38 -45 45 -62 127 -41 198 15 49 104 159 129 159 7 0 15 6 18 14 3 8 24
22 46 32 23 10 41 21 41 26 0 22 28 4 43 -27z m284 -220 c-6 -134 -29 -237
-63 -289 -12 -18 -13 -17 -19 10 -3 16 -13 44 -21 62 -8 18 -14 41 -14 52 0
10 -4 21 -9 24 -5 3 -12 18 -15 32 -7 27 1 43 85 166 11 15 19 30 19 34 0 7
32 42 39 43 2 1 1 -60 -2 -134z m3659 88 c10 -21 22 -39 27 -41 4 -2 7 -10 7
-17 0 -7 3 -15 8 -17 4 -1 21 -24 39 -49 35 -50 35 -48 -3 -149 -7 -19 -19
-54 -25 -77 -7 -24 -15 -43 -19 -43 -7 0 -35 82 -51 145 -20 83 -26 164 -20
263 2 33 15 27 37 -15z m-3815 -261 c6 -20 17 -48 24 -62 19 -36 37 -102 39
-141 2 -34 -20 -125 -47 -189 -28 -68 -30 -75 -28 -85 3 -14 -77 75 -97 108
-9 15 -20 27 -24 27 -4 0 -8 7 -8 15 0 8 -3 15 -7 15 -11 0 -63 84 -63 101 0
14 79 132 92 137 4 2 8 8 8 14 0 6 8 18 18 27 10 9 28 31 41 49 26 38 35 35
52 -16z m3969 41 c0 -5 16 -26 36 -48 19 -22 43 -52 52 -67 9 -16 20 -28 24
-28 4 0 8 -5 8 -10 0 -6 8 -19 18 -30 9 -10 25 -32 34 -48 17 -28 16 -30 -2
-50 -11 -12 -20 -24 -20 -27 0 -6 -123 -168 -149 -197 -18 -18 -19 -16 -60
108 -44 135 -47 173 -15 236 8 15 14 35 14 45 0 10 7 31 15 47 8 15 15 36 15
45 0 10 3 21 7 24 9 9 23 9 23 0z m-3810 -255 l0 -163 -20 38 c-26 48 -27 151
-3 229 10 32 19 58 21 58 1 0 2 -73 2 -162z m3655 77 c10 -34 15 -72 12 -98
-6 -48 -29 -117 -39 -117 -4 0 -7 63 -7 140 0 77 4 138 8 135 5 -2 16 -29 26
-60z m-4010 -175 c22 -33 43 -60 48 -60 4 0 7 -5 7 -11 0 -7 10 -21 23 -33 12
-11 36 -43 54 -69 24 -37 30 -54 23 -70 -4 -12 -27 -80 -49 -152 -51 -160 -50
-159 -84 -146 -15 6 -27 15 -27 21 0 5 -5 10 -11 10 -11 0 -94 64 -119 92 -57
65 -87 123 -85 168 2 43 19 104 34 120 30 34 41 49 41 56 0 16 83 134 94 134
6 0 29 -27 51 -60z m4410 27 c10 -17 32 -54 49 -82 16 -27 34 -54 41 -60 47
-41 61 -150 27 -215 -28 -56 -116 -150 -139 -150 -7 0 -13 -4 -13 -8 0 -5 -23
-21 -50 -36 -38 -21 -51 -24 -55 -14 -29 78 -95 294 -95 312 0 25 30 74 76
123 16 17 49 60 74 97 25 36 50 65 55 66 6 0 19 -15 30 -33z m-4081 -133 c11
-33 19 -98 21 -185 l5 -134 -21 25 c-11 14 -27 33 -35 43 -7 9 -14 21 -14 25
0 5 -18 34 -40 66 -46 65 -46 65 -24 114 9 21 22 52 30 70 8 18 14 41 14 52 0
10 3 26 7 36 5 14 10 10 24 -22 9 -21 24 -62 33 -90z m3746 43 c0 -11 6 -31
14 -45 30 -59 34 -89 19 -121 -9 -17 -19 -31 -24 -31 -5 0 -9 -7 -9 -15 0 -8
-4 -15 -9 -15 -5 0 -19 -19 -31 -42 -49 -96 -48 -95 -57 -73 -19 50 -2 226 32
330 8 22 17 54 20 70 l7 30 18 -35 c11 -19 19 -43 20 -53z m-3838 -251 c21
-30 42 -66 48 -80 5 -14 14 -26 20 -26 5 0 10 -5 10 -11 0 -6 8 -21 18 -34 16
-20 19 -44 20 -164 1 -78 -3 -141 -7 -141 -5 0 -14 7 -21 15 -7 8 -16 15 -20
15 -5 0 -22 12 -38 28 -16 15 -63 52 -105 82 -43 30 -77 60 -77 67 0 6 6 24
14 40 17 35 37 90 43 123 3 14 11 39 19 57 8 17 14 40 14 50 0 20 8 33 19 33
3 0 23 -24 43 -54z m3932 -33 c47 -146 58 -177 69 -201 10 -20 7 -26 -19 -47
-16 -13 -35 -24 -41 -25 -7 0 -13 -4 -13 -10 0 -5 -20 -21 -45 -36 -25 -14
-45 -30 -45 -35 0 -5 -4 -9 -9 -9 -6 0 -25 -14 -43 -30 -18 -17 -36 -29 -41
-27 -4 1 -9 52 -10 112 -3 112 10 181 39 216 8 8 14 19 14 23 0 10 103 155
111 155 3 1 18 -38 33 -86z m-3706 -166 c13 -38 22 -70 19 -73 -8 -9 -74 79
-82 111 -10 37 -15 137 -8 149 4 5 15 -20 26 -55 11 -35 31 -95 45 -132z
m3475 93 c-6 -62 -18 -90 -63 -140 -29 -33 -31 -33 -26 -10 3 14 22 74 42 134
40 118 57 123 47 16z m-3489 -189 c25 -33 46 -62 46 -64 0 -2 12 -26 28 -53
29 -51 82 -204 75 -216 -5 -9 -73 31 -73 43 0 5 -7 9 -15 9 -8 0 -15 4 -15 9
0 5 -8 12 -17 16 -10 3 -33 18 -52 34 l-34 28 -3 127 c-1 69 2 126 6 126 5 0
29 -27 54 -59z m3464 -213 c-13 -10 -28 -22 -35 -28 -7 -5 -17 -10 -23 -10 -5
0 -10 -4 -10 -9 0 -5 -20 -21 -45 -35 -25 -15 -45 -31 -45 -36 0 -6 -7 -10
-15 -10 -19 0 -19 2 5 78 22 70 65 166 89 198 9 12 23 32 31 44 8 12 21 28 28
36 6 7 12 17 12 22 0 6 6 12 13 15 9 3 13 -27 15 -122 3 -121 2 -127 -20 -143z
m-3767 157 c41 -30 79 -59 86 -65 7 -5 16 -10 21 -10 5 0 25 -17 46 -37 44
-44 65 -107 56 -171 -3 -26 -5 -86 -4 -134 1 -79 0 -88 -17 -88 -10 0 -20 4
-23 9 -3 5 -16 11 -28 14 -13 3 -48 15 -78 27 -30 12 -70 26 -87 31 -18 6 -33
14 -33 19 0 6 -4 10 -10 10 -14 0 -41 30 -64 70 -27 47 -23 126 12 235 16 50
32 102 36 118 3 15 8 27 9 27 2 0 37 -25 78 -55z m4144 -42 c15 -49 34 -109
42 -135 17 -56 13 -89 -16 -143 -32 -58 -80 -97 -147 -119 -58 -19 -96 -34
-161 -62 -33 -13 -39 -10 -34 20 3 15 0 180 -3 221 -2 22 3 57 12 79 17 43 70
101 102 111 11 4 20 11 20 16 0 5 5 9 10 9 6 0 16 5 23 10 46 38 104 79 114
79 6 1 23 -38 38 -86z m-3855 -175 c0 -5 5 -8 10 -8 6 0 21 -10 33 -21 12 -12
37 -28 55 -35 53 -23 112 -82 112 -113 0 -15 4 -31 9 -36 12 -13 40 -98 47
-143 3 -21 8 -41 11 -45 3 -5 -4 -4 -15 2 -11 6 -31 11 -44 11 -13 0 -28 4
-33 9 -6 6 -28 14 -50 20 -94 22 -174 59 -176 81 -4 40 -6 296 -2 302 5 9 43
-13 43 -24z m236 -31 c7 -9 14 -22 14 -27 0 -6 3 -10 8 -10 4 0 18 -18 32 -40
14 -22 28 -40 32 -40 5 0 8 -7 8 -15 0 -8 5 -15 10 -15 6 0 10 -4 10 -9 0 -20
-61 22 -100 68 -41 51 -70 107 -70 138 1 15 4 14 21 -7 11 -14 27 -33 35 -43z
m3030 16 c-11 -52 -12 -53 -71 -117 -41 -44 -85 -74 -85 -57 0 5 3 11 8 13 10
4 52 65 52 75 0 4 14 22 30 40 17 18 30 36 30 41 0 6 7 12 15 16 8 3 15 12 15
21 0 8 4 15 9 15 4 0 3 -21 -3 -47z m232 -125 l-3 -163 -130 -43 c-71 -23
-143 -47 -159 -52 -16 -5 -31 -9 -32 -7 -1 1 9 34 23 72 13 39 28 84 33 100
24 80 39 107 71 129 125 83 164 111 167 118 2 4 10 8 18 8 12 0 14 -26 12
-162z m-3226 -45 c2 -5 22 -21 46 -37 75 -51 222 -204 222 -232 0 -4 7 -15 16
-25 15 -17 14 -17 -23 -7 -112 30 -203 61 -211 71 -6 7 -15 32 -22 57 -7 25
-15 50 -20 55 -4 6 -10 28 -13 50 -3 22 -8 48 -12 58 -7 16 9 26 17 10z m2929
-10 c-5 -10 -15 -47 -22 -83 -7 -36 -21 -84 -31 -106 -17 -39 -23 -43 -95 -67
-43 -14 -95 -29 -117 -33 l-39 -7 19 34 c42 73 111 147 204 220 79 61 97 70
81 42z m-3076 -199 c177 -57 165 -47 204 -166 18 -57 39 -119 47 -138 7 -19
15 -46 16 -60 l3 -25 -145 0 c-125 1 -150 3 -179 20 -49 28 -64 45 -91 100
-21 43 -24 65 -25 180 -1 71 0 133 2 137 1 3 15 2 31 -3 15 -5 77 -25 137 -45z
m3377 -86 c-5 -185 -21 -223 -117 -283 -24 -15 -55 -19 -177 -22 -88 -2 -148
0 -148 6 0 18 82 266 98 296 20 39 22 40 122 71 47 14 101 31 120 39 44 16 93
33 101 34 3 1 4 -63 1 -141z m-2932 72 c0 -5 5 -10 10 -10 6 0 16 -5 23 -10 7
-6 49 -38 95 -71 46 -34 81 -63 79 -65 -10 -11 -108 34 -150 69 -45 39 -85 97
-66 97 5 0 9 -4 9 -10z m2330 -9 c0 -5 -7 -16 -15 -25 -8 -8 -15 -19 -15 -25
0 -6 -5 -11 -10 -11 -6 0 -21 -9 -33 -20 -26 -25 -119 -70 -144 -70 -14 0 -13
4 8 18 14 9 36 27 49 40 13 12 27 22 30 22 4 0 31 18 60 40 54 41 70 47 70 31z
m-2497 -65 c20 -3 63 -15 95 -27 31 -11 71 -25 88 -30 33 -10 53 -33 103 -121
18 -32 37 -58 42 -58 5 0 9 -5 9 -11 0 -6 7 -17 15 -25 8 -9 15 -19 15 -24 0
-13 -317 -11 -328 3 -6 7 -15 32 -22 56 -6 24 -15 51 -20 60 -4 9 -16 43 -25
76 -9 33 -23 73 -31 88 -13 26 -12 28 4 23 9 -3 34 -7 55 -10z m2701 -33 c-9
-27 -19 -62 -23 -78 -4 -17 -13 -40 -19 -52 -7 -12 -12 -30 -12 -41 0 -21 -28
-84 -42 -93 -15 -10 -318 -9 -318 0 0 5 6 16 13 23 18 20 57 76 57 83 0 7 57
91 79 117 9 10 24 18 34 18 10 0 37 9 60 19 24 11 74 26 112 34 39 9 71 16 72
16 1 1 -5 -20 -13 -46z m-2361 -77 c71 -19 155 -59 242 -117 118 -78 118 -79
-29 -78 -139 1 -143 2 -182 68 -10 17 -22 31 -26 31 -4 0 -8 6 -8 14 0 8 -4
16 -8 18 -9 4 -52 63 -52 72 0 8 2 8 63 -8z m2021 -13 c-7 -16 -40 -62 -72
-103 l-58 -75 -132 -2 c-131 -2 -131 -2 -112 17 11 11 25 20 30 20 6 0 10 4
10 9 0 14 98 73 205 122 21 10 111 36 132 38 8 1 7 -7 -3 -26z m-1589 -130
c132 -45 146 -60 50 -54 -59 3 -101 21 -145 62 -25 23 -36 38 -25 34 11 -5 65
-23 120 -42z m1255 43 c0 -13 -111 -84 -140 -89 -66 -13 -75 -14 -105 -7 l-30
6 45 16 c25 9 81 30 125 46 77 29 105 36 105 28z m127 -130 c29 0 53 -2 53 -3
0 -2 -43 -54 -67 -80 -13 -13 -23 -26 -23 -29 0 -12 -114 -154 -123 -154 -6 0
-42 11 -81 24 -39 13 -104 34 -144 46 -40 13 -75 26 -77 31 -3 4 9 18 27 30
18 13 39 29 47 37 8 8 24 18 35 23 12 5 39 20 62 32 62 36 153 57 209 49 17
-3 54 -5 82 -6z m-1735 -26 c10 -14 29 -36 42 -50 12 -14 40 -50 62 -80 21
-30 42 -56 46 -58 5 -2 8 -8 8 -13 0 -6 9 -20 20 -32 20 -20 20 -22 4 -34 -10
-7 -30 -13 -44 -13 -14 0 -30 -4 -36 -9 -14 -14 -169 -51 -213 -51 -53 0 -141
49 -141 79 0 5 -3 11 -7 13 -10 4 -53 95 -53 111 0 6 -14 45 -30 86 -17 40
-30 74 -30 76 0 1 79 1 176 1 175 -1 176 -2 196 -26z m331 12 c15 -6 27 -15
27 -19 0 -9 6 -12 84 -52 25 -13 46 -27 46 -32 0 -5 4 -9 10 -9 12 0 50 -32
50 -41 0 -4 -15 -10 -32 -14 -18 -3 -49 -12 -68 -20 -19 -7 -75 -26 -124 -41
l-88 -28 -24 29 c-13 17 -30 38 -39 48 -8 9 -15 21 -15 26 0 5 -7 11 -15 15
-8 3 -15 11 -15 18 0 7 -19 33 -41 58 -72 79 -75 76 79 75 79 -1 149 -6 165
-13z m297 3 c73 -12 203 -58 190 -67 -3 -2 -48 -18 -101 -36 -100 -33 -139
-39 -139 -22 0 6 -7 10 -15 10 -8 0 -15 4 -15 9 0 5 -17 17 -37 26 -21 10 -57
33 -81 51 -35 26 -39 33 -25 38 21 6 170 0 223 -9z m430 9 c0 -1 -18 -11 -40
-23 -53 -28 -160 -29 -219 -3 -22 10 -39 21 -37 23 4 4 296 6 296 3z m318 -5
c17 -2 32 -6 32 -10 0 -11 -62 -54 -97 -68 -18 -8 -33 -16 -33 -20 0 -4 -14
-15 -30 -25 -28 -16 -36 -16 -83 -5 -29 7 -61 19 -72 26 -11 7 -29 13 -40 13
-11 1 -30 6 -43 13 -21 12 -19 14 40 36 102 37 207 50 326 40z m796 -29 c-4
-19 -10 -39 -14 -45 -4 -5 -17 -43 -30 -82 -12 -40 -29 -78 -36 -84 -8 -6 -14
-15 -14 -20 0 -15 -45 -56 -85 -78 -46 -25 -117 -28 -172 -7 -21 8 -70 24
-108 36 -39 11 -76 24 -82 28 -8 5 1 24 28 59 21 29 39 54 39 57 0 5 34 46 68
83 12 13 22 27 22 30 0 3 12 18 28 32 27 27 27 27 195 27 l167 0 -6 -36z
m-1114 -100 c62 -22 115 -40 118 -40 8 0 -94 -81 -140 -112 -27 -17 -48 -35
-48 -39 0 -5 -5 -9 -11 -9 -6 0 -22 -9 -36 -19 -15 -12 -31 -17 -41 -13 -34
14 -122 74 -122 83 0 5 -6 9 -13 9 -7 0 -27 14 -45 30 -18 17 -35 30 -38 30
-4 0 -46 40 -41 40 1 0 52 18 112 39 61 22 128 40 151 40 24 1 87 -16 154 -39z
m-450 -70 c0 -5 5 -10 10 -10 12 0 11 0 82 -59 26 -22 61 -48 78 -58 16 -9 30
-21 30 -25 0 -4 5 -8 10 -8 19 0 55 -40 44 -48 -33 -29 -94 -72 -124 -87 -19
-10 -37 -21 -40 -24 -3 -3 -20 -14 -38 -24 -44 -25 -165 -26 -191 -3 -10 9
-20 16 -24 16 -21 0 -164 168 -180 213 -5 13 1 21 26 31 41 17 94 35 132 46
17 5 44 13 60 18 102 34 125 39 125 22z m652 1 c13 -5 70 -24 128 -41 138 -41
171 -57 164 -75 -4 -8 -10 -15 -14 -15 -5 0 -12 -11 -17 -24 -16 -47 -108
-149 -166 -185 -31 -19 -52 -23 -107 -23 -73 0 -103 14 -252 122 l-58 41 45
35 c25 19 47 34 50 34 5 0 20 12 73 60 18 17 35 30 37 30 2 0 21 11 41 25 41
28 44 29 76 16z"/>
</g>
</svg>
